<?xml version="1.0" standalone="no"?>
<!DOCTYPE svg PUBLIC "-//W3C//DTD SVG 20010904//EN"
 "http://www.w3.org/TR/2001/REC-SVG-20010904/DTD/svg10.dtd">
<svg version="1.0" xmlns="http://www.w3.org/2000/svg"
 width="1920.000000pt" height="1561.000000pt" viewBox="0 0 1920.000000 1561.000000"
 preserveAspectRatio="xMidYMid meet">

<g transform="translate(0.000000,1561.000000) scale(0.100000,-0.100000)"
fill="#000000" stroke="none">
<path d="M7900 13094 c-510 -38 -932 -137 -1365 -321 -963 -408 -1750 -1194
-2164 -2161 -162 -378 -273 -819 -313 -1237 -19 -204 -19 -2950 0 -3145 134
-1360 907 -2543 2097 -3206 532 -296 1128 -468 1748 -504 132 -8 704 -10 1847
-7 1762 4 1674 2 1998 51 186 29 463 97 647 159 607 206 1134 535 1591 991
720 721 1135 1644 1194 2657 13 228 13 2639 0 2864 -80 1359 -812 2572 -1980
3280 -413 250 -897 432 -1385 519 -349 63 -245 60 -2140 62 -951 0 -1750 -1
-1775 -2z m5200 -5299 l0 -2560 -590 -3 -590 -2 0 2565 0 2565 590 -2 590 -3
0 -2560z m-2831 2500 c391 -64 718 -342 848 -720 55 -162 53 -67 53 -2296 l0
-2059 -575 0 -575 0 -2 1803 -3 1802 -27 80 c-15 44 -44 109 -65 144 -47 78
-149 176 -229 218 -124 66 -63 63 -1301 63 l-1123 0 0 -2055 0 -2055 -597 2
-598 3 -3 2543 -2 2542 2052 0 c1794 0 2065 -2 2147 -15z m-1069 -3400 l0
-1665 -590 0 -590 0 0 1658 c0 912 3 1662 7 1665 3 4 269 7 590 7 l583 0 0
-1665z"/>
</g>
</svg>
