<?xml version="1.0" standalone="no"?>
<!DOCTYPE svg PUBLIC "-//W3C//DTD SVG 20010904//EN"
 "http://www.w3.org/TR/2001/REC-SVG-20010904/DTD/svg10.dtd">
<svg version="1.0" xmlns="http://www.w3.org/2000/svg"
 width="1920.000000pt" height="1561.000000pt" viewBox="0 0 1920.000000 1561.000000"
 preserveAspectRatio="xMidYMid meet">

<g transform="translate(0.000000,1561.000000) scale(0.100000,-0.100000)"
fill="#000000" stroke="none">
<path d="M3476 10819 c-140 -20 -276 -124 -339 -256 -31 -65 -32 -74 -32 -188
0 -115 1 -123 32 -185 40 -83 93 -144 160 -187 115 -73 20 -67 1208 -73 l1070
-5 67 -33 c114 -56 171 -147 172 -272 1 -93 -14 -127 -144 -330 -51 -80 -369
-577 -705 -1105 -336 -528 -858 -1347 -1160 -1820 -301 -473 -622 -975 -711
-1116 -213 -334 -208 -324 -209 -474 0 -114 2 -123 31 -185 38 -80 104 -155
175 -197 113 -67 -25 -63 2079 -63 2041 0 1948 -2 2050 50 60 30 151 119 183
178 148 273 -18 613 -323 662 -42 6 -466 10 -1188 10 l-1123 -1 -60 27 c-68
31 -131 93 -162 162 -28 64 -29 170 0 232 11 25 204 333 428 685 225 352 537
843 695 1090 325 510 1199 1882 1520 2384 117 184 223 357 236 385 123 270
-53 583 -351 626 -87 12 -3513 11 -3599 -1z"/>
<path d="M8191 10820 c-197 -29 -347 -177 -382 -374 -33 -190 70 -386 250
-474 l76 -37 495 -5 c422 -5 501 -8 536 -22 155 -61 251 -158 295 -299 18 -59
19 -133 19 -2437 0 -2026 2 -2387 15 -2445 56 -268 327 -442 597 -386 187 39
348 200 387 387 8 38 11 732 11 2425 0 2071 2 2380 15 2430 40 153 134 259
284 319 55 22 68 23 551 28 l495 5 67 31 c280 133 354 490 146 710 -64 68
-106 96 -190 126 l-63 23 -1775 1 c-976 1 -1799 -2 -1829 -6z"/>
<path d="M12894 10820 c-174 -26 -299 -125 -367 -291 l-22 -54 -3 -2870 c-1
-2023 1 -2885 9 -2922 26 -131 127 -255 256 -316 l68 -32 1576 0 1575 0 77 38
c127 63 207 160 242 292 66 254 -106 514 -366 555 -42 6 -433 10 -1065 10
-960 0 -1002 0 -1055 19 -147 50 -255 166 -294 316 -13 50 -15 147 -15 606 0
327 4 568 10 600 30 159 166 302 325 344 51 13 174 15 897 15 577 0 853 3 890
11 87 18 158 58 224 123 179 180 179 451 -1 632 -65 65 -136 105 -223 123 -37
8 -313 11 -890 11 -723 0 -846 2 -897 15 -159 42 -295 185 -325 344 -14 77
-13 1114 1 1183 34 157 153 285 314 339 32 11 256 14 1096 19 l1055 5 79 39
c263 130 336 449 156 685 -40 53 -136 118 -209 143 l-67 23 -1500 1 c-825 1
-1523 -2 -1551 -6z"/>
</g>
</svg>
